{
	"asset":{
		"generator":"Khronos glTF Blender I/O v4.3.47",
		"version":"2.0"
	},
	"scene":0,
	"scenes":[
		{
			"name":"Scene",
			"nodes":[
				29
			]
		}
	],
	"nodes":[
		{
			"name":"face",
			"rotation":[
				-1.77635620412554e-15,
				7.105427357601002e-15,
				9.529120656610879e-22,
				1
			],
			"translation":[
				-1.0796709082327993e-09,
				-2.2083521677984663e-09,
				1.3867732517880427e-09
			]
		},
		{
			"children":[
				0
			],
			"name":"spine.006",
			"rotation":[
				-0.0937119573354721,
				-1.1868468874354221e-07,
				-1.1171334080017914e-08,
				0.9955993890762329
			],
			"scale":[
				1,
				0.9999999403953552,
				1
			],
			"translation":[
				-8.073097745864288e-11,
				0.06270123273134232,
				2.5248350077333725e-09
			]
		},
		{
			"children":[
				1
			],
			"name":"spine.005",
			"rotation":[
				-0.09485751390457153,
				-1.6951827921528502e-14,
				-2.2615786576807295e-08,
				0.9954908490180969
			],
			"translation":[
				-1.6839121208533925e-09,
				0.0661635473370552,
				-5.6123305114397226e-08
			]
		},
		{
			"children":[
				2
			],
			"name":"spine.004",
			"rotation":[
				0.20173777639865875,
				1.1675832212176829e-07,
				2.4049009894611117e-08,
				0.9794396162033081
			],
			"scale":[
				1,
				0.9999997615814209,
				0.9999998807907104
			],
			"translation":[
				-1.364335089348856e-09,
				0.1925784945487976,
				4.5564463313496617e-10
			]
		},
		{
			"name":"hand.L",
			"rotation":[
				-0.034119635820388794,
				0.018726026639342308,
				-0.009631060995161533,
				0.99919593334198
			],
			"scale":[
				1,
				0.9999997615814209,
				1
			],
			"translation":[
				-6.842310540378094e-08,
				0.3141583204269409,
				6.984919309616089e-09
			]
		},
		{
			"children":[
				4
			],
			"name":"forearm.L",
			"rotation":[
				0.08477196842432022,
				-0.09420637786388397,
				0.04615617170929909,
				0.9908624887466431
			],
			"translation":[
				-2.130400389432907e-08,
				0.27202463150024414,
				5.3551048040390015e-09
			]
		},
		{
			"children":[
				5
			],
			"name":"upper_arm.L",
			"rotation":[
				0.08874201029539108,
				0.7322643399238586,
				-0.15750448405742645,
				0.656586766242981
			],
			"scale":[
				0.9999999403953552,
				1,
				1
			],
			"translation":[
				0.07226906716823578,
				0.2076127976179123,
				0.016626602038741112
			]
		},
		{
			"children":[
				6
			],
			"name":"shoulder.L",
			"rotation":[
				-0.5796355605125427,
				-0.36708852648735046,
				-0.3560523986816406,
				0.634425163269043
			],
			"scale":[
				0.9999999403953552,
				1,
				0.9999998211860657
			],
			"translation":[
				0.018300000578165054,
				0.13722111284732819,
				0.0782509297132492
			]
		},
		{
			"name":"hand.R",
			"rotation":[
				-0.030558807775378227,
				0.022856900468468666,
				-0.0557631216943264,
				0.9977145195007324
			],
			"scale":[
				0.9999998211860657,
				0.9999998211860657,
				0.9999999403953552
			],
			"translation":[
				-6.701520760543644e-08,
				0.2833419740200043,
				4.656612873077393e-10
			]
		},
		{
			"children":[
				8
			],
			"name":"forearm.R",
			"rotation":[
				0.08377183228731155,
				0.049961790442466736,
				-0.05488939210772514,
				0.9937168955802917
			],
			"scale":[
				1,
				1,
				0.9999998807907104
			],
			"translation":[
				5.814945325255394e-08,
				0.270818293094635,
				2.7939677238464355e-09
			]
		},
		{
			"children":[
				9
			],
			"name":"upper_arm.R",
			"rotation":[
				0.09966760128736496,
				-0.7300822138786316,
				0.18237532675266266,
				0.6509881615638733
			],
			"scale":[
				1,
				1.0000001192092896,
				1
			],
			"translation":[
				-0.067604199051857,
				0.17723360657691956,
				-0.008823366835713387
			]
		},
		{
			"children":[
				10
			],
			"name":"shoulder.R",
			"rotation":[
				-0.5870469212532043,
				0.35311880707740784,
				0.33862027525901794,
				0.6449956893920898
			],
			"scale":[
				0.9999998807907104,
				0.9999999403953552,
				0.9999998211860657
			],
			"translation":[
				-0.036667000502347946,
				0.13722111284732819,
				0.0782509297132492
			]
		},
		{
			"children":[
				3,
				7,
				11
			],
			"name":"spine.003",
			"rotation":[
				0.0016271495260298252,
				-1.1920913323137938e-07,
				1.9397142225763275e-10,
				0.9999986886978149
			],
			"scale":[
				1,
				0.9999998807907104,
				0.9999999403953552
			],
			"translation":[
				1.590263476458631e-10,
				0.1728876233100891,
				2.051055991714179e-09
			]
		},
		{
			"children":[
				12
			],
			"name":"spine.002",
			"rotation":[
				-0.07746415585279465,
				-5.5121668541451355e-15,
				-1.8468893969725286e-08,
				0.9969951510429382
			],
			"scale":[
				1,
				0.9999998807907104,
				0.9999999403953552
			],
			"translation":[
				6.110953965077215e-10,
				0.1366366595029831,
				-8.559575270794539e-10
			]
		},
		{
			"children":[
				13
			],
			"name":"spine.001",
			"rotation":[
				-0.0644763931632042,
				4.633720504195783e-14,
				-1.5372366490851164e-08,
				0.9979192614555359
			],
			"scale":[
				1,
				1,
				0.9999999403953552
			],
			"translation":[
				6.852509670807194e-10,
				0.1522195041179657,
				-6.7816823268174176e-09
			]
		},
		{
			"name":"pelvis.L",
			"rotation":[
				-0.15245510637760162,
				-0.793330729007721,
				-0.28550395369529724,
				0.5156270861625671
			],
			"translation":[
				-0.018366998061537743,
				-1.2505401159046414e-09,
				-4.953224497228348e-09
			]
		},
		{
			"name":"pelvis.R",
			"rotation":[
				-0.1524551808834076,
				0.7933306097984314,
				0.28550392389297485,
				0.5156273245811462
			],
			"scale":[
				1,
				1.0000001192092896,
				0.9999999403953552
			],
			"translation":[
				1.4149601490487385e-09,
				-1.050118547674117e-09,
				2.0323676075406638e-10
			]
		},
		{
			"name":"toe.L",
			"rotation":[
				-0.3109469413757324,
				0.9060689210891724,
				-0.27236154675483704,
				0.09038994461297989
			],
			"scale":[
				1,
				1.0000001192092896,
				1.0000001192092896
			],
			"translation":[
				2.60770320892334e-08,
				0.11990514397621155,
				1.4319084584712982e-08
			]
		},
		{
			"name":"heel.02.L",
			"rotation":[
				0.4054615795612335,
				0.8445401191711426,
				-0.1403426229953766,
				0.320401132106781
			],
			"scale":[
				1.0000001192092896,
				0.9999998807907104,
				1
			],
			"translation":[
				-0.04139823839068413,
				0.10407430678606033,
				0.031450722366571426
			]
		},
		{
			"children":[
				17,
				18
			],
			"name":"foot.L",
			"rotation":[
				-0.4320932626724243,
				-0.15280094742774963,
				-0.2826768755912781,
				0.8426393270492554
			],
			"scale":[
				0.9999999403953552,
				1.0000001192092896,
				1.0000001192092896
			],
			"translation":[
				1.3576936908066273e-08,
				0.4374336004257202,
				1.7580532585270703e-08
			]
		},
		{
			"children":[
				19
			],
			"name":"shin.L",
			"rotation":[
				-0.002786134136840701,
				0.007376211695373058,
				0.037288449704647064,
				0.9992734789848328
			],
			"scale":[
				0.9999998807907104,
				0.9999999403953552,
				0.9999998807907104
			],
			"translation":[
				-9.74978320300579e-09,
				0.5176018476486206,
				7.2177499532699585e-09
			]
		},
		{
			"children":[
				20
			],
			"name":"thigh.L",
			"rotation":[
				0.9962376356124878,
				0.041245922446250916,
				-0.010613816790282726,
				0.0754762515425682
			],
			"scale":[
				1.0000026226043701,
				1.0000001192092896,
				1.0000078678131104
			],
			"translation":[
				0.09800000488758087,
				0.07081843912601471,
				0.025942305102944374
			]
		},
		{
			"name":"toe.R",
			"rotation":[
				-0.31094658374786377,
				-0.9060688614845276,
				0.2723614275455475,
				0.09039194881916046
			],
			"scale":[
				1.000000238418579,
				1.0000003576278687,
				1
			],
			"translation":[
				-1.862645149230957e-08,
				0.11990544199943542,
				2.1886080503463745e-08
			]
		},
		{
			"name":"heel.02.R",
			"rotation":[
				0.40546780824661255,
				-0.8445376753807068,
				0.14033940434455872,
				0.32040101289749146
			],
			"scale":[
				1.0000001192092896,
				1.0000005960464478,
				1
			],
			"translation":[
				0.041398756206035614,
				0.10407480597496033,
				0.03145025297999382
			]
		},
		{
			"children":[
				22,
				23
			],
			"name":"foot.R",
			"rotation":[
				-0.4289296567440033,
				0.16146790981292725,
				0.2656555771827698,
				0.8481595516204834
			],
			"scale":[
				1,
				1.0000001192092896,
				1.000000238418579
			],
			"translation":[
				2.6600901037454605e-08,
				0.437953382730484,
				-1.469106791773811e-08
			]
		},
		{
			"children":[
				24
			],
			"name":"shin.R",
			"rotation":[
				-0.0030140227172523737,
				-0.007352122571319342,
				-0.006537761073559523,
				0.9999470710754395
			],
			"scale":[
				0.9999999403953552,
				1,
				0.9999999403953552
			],
			"translation":[
				-4.016328603029251e-09,
				0.5167952179908752,
				1.5832483768463135e-08
			]
		},
		{
			"children":[
				25
			],
			"name":"thigh.R",
			"rotation":[
				0.9966316223144531,
				-0.030658064410090446,
				0.009814810939133167,
				0.07542684674263
			],
			"scale":[
				0.9999991059303284,
				1,
				0.9999946355819702
			],
			"translation":[
				-0.10975488275289536,
				0.07081843912601471,
				0.025942256674170494
			]
		},
		{
			"children":[
				14,
				15,
				16,
				21,
				26
			],
			"name":"spine",
			"rotation":[
				0.1258196085691452,
				1.1826192292119231e-07,
				1.4998867925442028e-08,
				0.9920531511306763
			],
			"scale":[
				1,
				1,
				0.9999999403953552
			],
			"translation":[
				0.009183499030768871,
				1.0098999738693237,
				-0.0551999993622303
			]
		},
		{
			"mesh":0,
			"name":"tripo_node_46ab53d3-a0c8-4fc2-af0e-a3b6700c0830",
			"skin":0
		},
		{
			"children":[
				28,
				27
			],
			"name":"metarig",
			"rotation":[
				0,
				0.7071068286895752,
				0,
				0.7071068286895752
			],
			"scale":[
				6.174570083618164,
				6.174570083618164,
				6.174570083618164
			],
			"translation":[
				0,
				-6.308671474456787,
				0.12392473220825195
			]
		}
	],
	"materials":[
		{
			"name":"tripo_material_46ab53d3-a0c8-4fc2-af0e-a3b6700c0830",
			"normalTexture":{
				"index":0
			},
			"pbrMetallicRoughness":{
				"baseColorTexture":{
					"index":1
				},
				"metallicRoughnessTexture":{
					"index":2
				}
			}
		}
	],
	"meshes":[
		{
			"name":"tripo_mesh_46ab53d3-a0c8-4fc2-af0e-a3b6700c0830",
			"primitives":[
				{
					"attributes":{
						"POSITION":0,
						"NORMAL":1,
						"TEXCOORD_0":2,
						"JOINTS_0":3,
						"WEIGHTS_0":4
					},
					"indices":5,
					"material":0
				}
			]
		}
	],
	"textures":[
		{
			"sampler":0,
			"source":0
		},
		{
			"sampler":0,
			"source":1
		},
		{
			"sampler":0,
			"source":2
		}
	],
	"images":[
		{
			"mimeType":"image/jpeg",
			"name":"NormalGL_46ab53d3-a0c8-4fc2-af0e-a3b6700c0830",
			"uri":"NormalGL_46ab53d3-a0c8-4fc2-af0e-a3b6700c0830.jpg"
		},
		{
			"mimeType":"image/jpeg",
			"name":"Color_46ab53d3-a0c8-4fc2-af0e-a3b6700c0830",
			"uri":"Color_46ab53d3-a0c8-4fc2-af0e-a3b6700c0830.jpg"
		},
		{
			"mimeType":"image/jpeg",
			"name":"ORM_46ab53d3-a0c8-4fc2-af0e-a3b6700c0830",
			"uri":"ORM_46ab53d3-a0c8-4fc2-af0e-a3b6700c0830.jpg"
		}
	],
	"skins":[
		{
			"inverseBindMatrices":6,
			"joints":[
				27,
				14,
				13,
				12,
				3,
				2,
				1,
				0,
				7,
				6,
				5,
				4,
				11,
				10,
				9,
				8,
				15,
				16,
				21,
				20,
				19,
				17,
				18,
				26,
				25,
				24,
				22,
				23
			],
			"name":"metarig"
		}
	],
	"accessors":[
		{
			"bufferView":0,
			"componentType":5126,
			"count":58617,
			"max":[
				1.0564202070236206,
				6.214742183685303,
				6.184652328491211
			],
			"min":[
				-1.1027061939239502,
				-6.260079383850098,
				-6.169833660125732
			],
			"type":"VEC3"
		},
		{
			"bufferView":1,
			"componentType":5126,
			"count":58617,
			"type":"VEC3"
		},
		{
			"bufferView":2,
			"componentType":5126,
			"count":58617,
			"type":"VEC2"
		},
		{
			"bufferView":3,
			"componentType":5121,
			"count":58617,
			"type":"VEC4"
		},
		{
			"bufferView":4,
			"componentType":5126,
			"count":58617,
			"type":"VEC4"
		},
		{
			"bufferView":5,
			"componentType":5123,
			"count":329232,
			"type":"SCALAR"
		},
		{
			"bufferView":6,
			"componentType":5126,
			"count":28,
			"type":"MAT4"
		}
	],
	"bufferViews":[
		{
			"buffer":0,
			"byteLength":703404,
			"byteOffset":0,
			"target":34962
		},
		{
			"buffer":0,
			"byteLength":703404,
			"byteOffset":703404,
			"target":34962
		},
		{
			"buffer":0,
			"byteLength":468936,
			"byteOffset":1406808,
			"target":34962
		},
		{
			"buffer":0,
			"byteLength":234468,
			"byteOffset":1875744,
			"target":34962
		},
		{
			"buffer":0,
			"byteLength":937872,
			"byteOffset":2110212,
			"target":34962
		},
		{
			"buffer":0,
			"byteLength":658464,
			"byteOffset":3048084,
			"target":34963
		},
		{
			"buffer":0,
			"byteLength":1792,
			"byteOffset":3706548
		}
	],
	"samplers":[
		{
			"magFilter":9729,
			"minFilter":9987
		}
	],
	"buffers":[
		{
			"byteLength":3708340,
			"uri":"bartek.bin"
		}
	]
}
