{
	"asset":{
		"generator":"Khronos glTF Blender I/O v4.2.70",
		"version":"2.0"
	},
	"scene":0,
	"scenes":[
		{
			"name":"Scene",
			"nodes":[
				0
			]
		}
	],
	"nodes":[
		{
			"mesh":0,
			"name":"tripo_node_46ab53d3-a0c8-4fc2-af0e-a3b6700c0830"
		}
	],
	"materials":[
		{
			"name":"tripo_material_46ab53d3-a0c8-4fc2-af0e-a3b6700c0830",
			"normalTexture":{
				"index":0
			},
			"pbrMetallicRoughness":{
				"baseColorTexture":{
					"index":1
				},
				"metallicRoughnessTexture":{
					"index":2
				}
			}
		}
	],
	"meshes":[
		{
			"name":"tripo_mesh_46ab53d3-a0c8-4fc2-af0e-a3b6700c0830",
			"primitives":[
				{
					"attributes":{
						"POSITION":0,
						"NORMAL":1,
						"TEXCOORD_0":2
					},
					"indices":3,
					"material":0
				}
			]
		}
	],
	"textures":[
		{
			"sampler":0,
			"source":0
		},
		{
			"sampler":0,
			"source":1
		},
		{
			"sampler":0,
			"source":2
		}
	],
	"images":[
		{
			"mimeType":"image/jpeg",
			"name":"NormalGL_46ab53d3-a0c8-4fc2-af0e-a3b6700c0830",
			"uri":"NormalGL_46ab53d3-a0c8-4fc2-af0e-a3b6700c0830.jpg"
		},
		{
			"mimeType":"image/jpeg",
			"name":"Color_46ab53d3-a0c8-4fc2-af0e-a3b6700c0830",
			"uri":"Color_46ab53d3-a0c8-4fc2-af0e-a3b6700c0830.jpg"
		},
		{
			"mimeType":"image/jpeg",
			"name":"ORM_46ab53d3-a0c8-4fc2-af0e-a3b6700c0830",
			"uri":"ORM_46ab53d3-a0c8-4fc2-af0e-a3b6700c0830.jpg"
		}
	],
	"accessors":[
		{
			"bufferView":0,
			"componentType":5126,
			"count":58617,
			"max":[
				0.08032014220952988,
				0.47250986099243164,
				0.470222145318985
			],
			"min":[
				-0.0838392898440361,
				-0.47595691680908203,
				-0.46909546852111816
			],
			"type":"VEC3"
		},
		{
			"bufferView":1,
			"componentType":5126,
			"count":58617,
			"type":"VEC3"
		},
		{
			"bufferView":2,
			"componentType":5126,
			"count":58617,
			"type":"VEC2"
		},
		{
			"bufferView":3,
			"componentType":5123,
			"count":329232,
			"type":"SCALAR"
		}
	],
	"bufferViews":[
		{
			"buffer":0,
			"byteLength":703404,
			"byteOffset":0,
			"target":34962
		},
		{
			"buffer":0,
			"byteLength":703404,
			"byteOffset":703404,
			"target":34962
		},
		{
			"buffer":0,
			"byteLength":468936,
			"byteOffset":1406808,
			"target":34962
		},
		{
			"buffer":0,
			"byteLength":658464,
			"byteOffset":1875744,
			"target":34963
		}
	],
	"samplers":[
		{
			"magFilter":9729,
			"minFilter":9987
		}
	],
	"buffers":[
		{
			"byteLength":2534208,
			"uri":"untitled.bin"
		}
	]
}
