{
	"asset":{
		"generator":"Khronos glTF Blender I/O v4.2.60",
		"version":"2.0"
	},
	"scene":0,
	"scenes":[
		{
			"name":"Scene",
			"nodes":[
				6
			]
		}
	],
	"nodes":[
		{
			"name":"Bone.004",
			"translation":[
				0,
				1.0176668167114258,
				0
			]
		},
		{
			"children":[
				0
			],
			"name":"Bone.003",
			"translation":[
				0,
				1.6404852867126465,
				0
			]
		},
		{
			"children":[
				1
			],
			"name":"Bone.002",
			"translation":[
				0,
				1.5717425346374512,
				0
			]
		},
		{
			"children":[
				2
			],
			"name":"Bone.001",
			"translation":[
				0,
				1,
				0
			]
		},
		{
			"children":[
				3
			],
			"name":"Bone"
		},
		{
			"mesh":0,
			"name":"Cylinder",
			"skin":0
		},
		{
			"children":[
				5,
				4
			],
			"name":"Armature",
			"translation":[
				0,
				-2.9448623657226562,
				0
			]
		}
	],
	"meshes":[
		{
			"name":"Cylinder",
			"primitives":[
				{
					"attributes":{
						"POSITION":0,
						"NORMAL":1,
						"TEXCOORD_0":2,
						"JOINTS_0":3,
						"WEIGHTS_0":4
					},
					"indices":5
				}
			]
		}
	],
	"skins":[
		{
			"inverseBindMatrices":6,
			"joints":[
				4,
				3,
				2,
				1,
				0
			],
			"name":"Armature"
		}
	],
	"accessors":[
		{
			"bufferView":0,
			"componentType":5126,
			"count":17152,
			"max":[
				1,
				3.0561304092407227,
				1
			],
			"min":[
				-1,
				-3.0561304092407227,
				-1
			],
			"type":"VEC3"
		},
		{
			"bufferView":1,
			"componentType":5126,
			"count":17152,
			"type":"VEC3"
		},
		{
			"bufferView":2,
			"componentType":5126,
			"count":17152,
			"type":"VEC2"
		},
		{
			"bufferView":3,
			"componentType":5121,
			"count":17152,
			"type":"VEC4"
		},
		{
			"bufferView":4,
			"componentType":5126,
			"count":17152,
			"type":"VEC4"
		},
		{
			"bufferView":5,
			"componentType":5123,
			"count":50676,
			"type":"SCALAR"
		},
		{
			"bufferView":6,
			"componentType":5126,
			"count":5,
			"type":"MAT4"
		}
	],
	"bufferViews":[
		{
			"buffer":0,
			"byteLength":205824,
			"byteOffset":0,
			"target":34962
		},
		{
			"buffer":0,
			"byteLength":205824,
			"byteOffset":205824,
			"target":34962
		},
		{
			"buffer":0,
			"byteLength":137216,
			"byteOffset":411648,
			"target":34962
		},
		{
			"buffer":0,
			"byteLength":68608,
			"byteOffset":548864,
			"target":34962
		},
		{
			"buffer":0,
			"byteLength":274432,
			"byteOffset":617472,
			"target":34962
		},
		{
			"buffer":0,
			"byteLength":101352,
			"byteOffset":891904,
			"target":34963
		},
		{
			"buffer":0,
			"byteLength":320,
			"byteOffset":993256
		}
	],
	"buffers":[
		{
			"byteLength":993576,
			"uri":"test.bin"
		}
	]
}
